# xmcd
# Track frame offsets:
# 150
# 21035
# 50032
# 84707
# 132415
# 148440
# 164725
# 195435
#
# Disc length: 3337 seconds
# Revision: 0
# Processed by: cddbd v1.4PL0 Copyright (c) Steve Scherf et al.
# Submitted via: VisiTrax 2.9.5.180 - For more info visit www.synapsa.com
#
DISCID=780d0708
DTITLE=Coleman, Deborah - Soul Be It
DYEAR=2003
DGENRE=
TTITLE0=Brick
TTITLE1=My Heart Bleeds Blue
TTITLE2=Don't Lie To Me
TTITLE3=I'm A Woman
TTITLE4=You're With Me
TTITLE5=I Believe
TTITLE6=The Dream
TTITLE7=Goodbye Misery
EXTD=
EXTT0=
EXTT1=
EXTT2=
EXTT3=
EXTT4=
EXTT5=
EXTT6=
EXTT7=
PLAYORDER=
